<?xml version="1.0" encoding="UTF-8" standalone="no"?>
<!-- Created with Inkscape (http://www.inkscape.org/) -->

<svg
   width="128mm"
   height="40mm"
   viewBox="0 0 128 40.000001"
   version="1.1"
   id="svg896"
   inkscape:version="1.2.2 (b0a8486541, 2022-12-01)"
   sodipodi:docname="aptitek-inline_1.2.svg"
   xmlns:inkscape="http://www.inkscape.org/namespaces/inkscape"
   xmlns:sodipodi="http://sodipodi.sourceforge.net/DTD/sodipodi-0.dtd"
   xmlns="http://www.w3.org/2000/svg"
   xmlns:svg="http://www.w3.org/2000/svg">
  <sodipodi:namedview
     id="namedview898"
     pagecolor="#505050"
     bordercolor="#ffffff"
     borderopacity="1"
     inkscape:pageshadow="0"
     inkscape:pageopacity="0"
     inkscape:pagecheckerboard="1"
     inkscape:document-units="mm"
     showgrid="false"
     fit-margin-top="4"
     fit-margin-left="4"
     fit-margin-right="4"
     fit-margin-bottom="4"
     inkscape:zoom="11.313709"
     inkscape:cx="266.75603"
     inkscape:cy="72.124892"
     inkscape:window-width="1920"
     inkscape:window-height="1049"
     inkscape:window-x="1920"
     inkscape:window-y="0"
     inkscape:window-maximized="1"
     inkscape:current-layer="g141280"
     inkscape:showpageshadow="0"
     inkscape:deskcolor="#505050" />
  <defs
     id="defs893" />
  <g
     inkscape:label="Layer 1"
     inkscape:groupmode="layer"
     id="layer1"
     transform="translate(-21.580764,-70.458727)">
    <g
       id="g141280"
       style="font-size:10.5833px;line-height:1.25;letter-spacing:-1.5875px;stroke-width:0.264583"
       transform="matrix(3.0677611,0,0,3.0677611,-109.42033,-336.62985)">
      <path
         id="path141015"
         style="font-size:14.6925px;font-family:'Recursive Sans Casual Static';-inkscape-font-specification:'TeX Gyre Schola, Normal';letter-spacing:-2.06613px;fill:#cb4b16;fill-opacity:1;stroke-width:0.391049"
         d="M 281.05072 514.32593 C 276.86339 515.19776 272.59389 515.63293 268.16024 515.68138 C 264.88624 515.69918 261.63871 515.43348 258.39831 515.09183 A 3.8141877 3.8141877 0 0 1 258.91974 516.97444 A 3.8141877 3.8141877 0 0 1 258.14619 519.25751 C 259.52508 519.35838 260.86208 519.45296 261.98972 519.52618 L 260.12494 534.34002 C 259.82598 536.79176 261.08143 539.18374 263.77237 539.18374 C 266.58292 539.18374 270.76919 538.46621 272.26416 536.13413 C 273.22094 534.39997 271.42704 532.06749 269.93207 530.93133 C 268.3773 532.42628 266.34407 533.32357 265.0285 533.74219 L 266.83407 519.69935 C 268.74289 519.70922 270.80554 519.67802 272.13301 519.61149 C 274.06246 519.51439 279.12322 518.44286 283.54516 518.15799 L 281.05072 514.32593 z "
         transform="scale(0.26458333)" />
      <path
         id="path140090"
         style="font-style:italic;font-weight:600;font-size:11.2889px;font-family:Skolar;-inkscape-font-specification:'Skolar, Semi-Bold Italic';fill:#859900;stroke-width:0.0941275"
         d="M 63.964097 135.91682 C 62.24794 135.91682 61.422524 137.0701 61.422524 138.2106 L 62.334681 138.2106 C 62.334681 137.63395 63.008262 137.1214 63.964097 137.1214 C 64.007917 137.1214 64.055443 137.12198 64.102732 137.12258 L 63.953317 138.34738 C 63.740812 140.01708 63.255058 140.82157 62.177348 141.79303 L 62.162188 142.02077 C 62.420231 142.32435 62.845202 142.64303 63.300573 142.64303 C 63.48272 142.64303 63.680037 142.61264 63.862185 142.49125 C 64.621136 142.03587 64.818515 140.88225 64.924768 140.01706 L 65.29401 137.16756 C 65.327153 137.16932 65.373983 137.17166 65.398112 137.17295 C 65.63707 137.18575 65.701845 137.19223 66.3101 137.23713 C 66.373045 137.24176 66.507707 137.2522 66.608257 137.25987 A 1.0091705 1.0091705 0 0 1 66.487478 136.78282 A 1.0091705 1.0091705 0 0 1 66.749418 136.10481 C 65.824766 136.00312 64.898626 135.91682 63.964097 135.91682 z " />
      <path
         d="m 55.544586,142.28886 c 1.117602,0 1.969992,-1.94997 1.969992,-1.94997 0,0 0.1016,-0.16933 0.1016,-0.27093 0,-0.12418 -0.112889,-0.22578 -0.237067,-0.22578 -0.135466,0 -0.225778,0.15804 -0.225778,0.15804 0.0068,-0.0161 -0.683443,0.6829 -1.215583,1.15196 -0.254058,0.22394 -0.664097,0.15454 -0.664097,-0.36475 0,-0.32738 0.05644,-0.73378 0.146756,-1.17404 0.7112,-0.13547 1.388534,-0.92569 1.388534,-1.14018 0,-0.0903 -0.05644,-0.13547 -0.1016,-0.13547 -0.135467,0 -0.485423,0.28222 -0.903112,0.28222 h -0.135467 c 0.508001,-1.73849 1.332091,-3.63502 1.625602,-4.00756 0.191911,-0.22577 0.270934,-0.3048 0.270934,-0.37253 0,-0.11289 -0.112889,-0.15804 -0.338667,-0.15804 -0.237067,0 -0.598312,0.0564 -0.914401,0.24835 -0.07902,-0.0677 -0.440267,-0.32738 -0.903112,-0.32738 -1.174046,0 -2.077158,1.14018 -3.465693,3.40925 -0.970845,-0.38382 -1.986846,-0.72249 -3.025425,-0.72249 -1.704624,0 -2.810936,1.16276 -2.810936,2.63032 0,1.55786 1.411112,2.96898 2.743203,2.96898 1.783646,0 2.449691,-1.50143 3.747914,-3.81565 0.553157,0.29351 1.049868,0.59831 1.512713,0.82409 -0.112889,0.508 -0.169333,0.99342 -0.169333,1.43369 0,0.92569 0.756356,1.55787 1.603023,1.55787 z m -6.953962,-1.14018 c -0.778934,0 -1.422402,-0.56445 -1.422402,-1.38854 0,-1.28693 0.982135,-2.1336 2.596447,-2.1336 0.643468,0 1.253068,0.15804 1.828802,0.38382 -1.275645,2.11103 -1.930402,3.13832 -3.002847,3.13832 z m 4.368804,-3.30765 c 1.286935,-2.26907 1.885247,-3.19476 2.698047,-3.19476 0.112889,0 0.180623,0.0226 0.248356,0.0452 -0.553156,1.00471 -1.162756,2.3368 -1.557868,3.66889 -0.451556,-0.13547 -0.914401,-0.32738 -1.388535,-0.51929 z"
         style="font-size:11.2889px;line-height:1.25;font-family:Milkshake;-inkscape-font-specification:'Milkshake, Normal';letter-spacing:-1.5875px;fill:#268bd2;stroke-width:0.264583"
         id="path63117-0"
         sodipodi:nodetypes="scsscsscsssccsscscsssccssssscssscccs" />
      <path
         d="m 57.487666,136.12512 q 0.225778,-0.079 0.485423,-0.079 0.282223,0 0.485423,0.14676 0.2032,0.13547 0.270933,0.47413 0.07902,0.32738 -0.05644,0.90312 -0.01129,0.0564 -0.02258,0.1016 l 0.06773,0.0339 q 0.496712,-0.72249 1.117602,-1.19662 0.620889,-0.48542 1.219201,-0.48542 0.519289,0 0.846667,0.34995 0.327378,0.34996 0.428979,0.92569 0.1016,0.57574 -0.06773,1.24178 l -0.06773,0.27093 q -0.462845,1.79494 -1.241779,2.64161 -0.767646,0.84667 -1.862669,0.84667 -0.361245,0 -0.666045,-0.14676 -0.293511,-0.15805 -0.508,-0.38382 -0.21449,-0.22578 -0.338667,-0.45156 l -0.06773,0.0113 q -0.248356,0.73378 -0.428978,1.47885 -0.180623,0.75635 -0.225778,1.59173 -0.112889,0.0339 -0.248356,0.0339 -0.474134,0 -0.699912,-0.37254 -0.225778,-0.36124 -0.124178,-0.88053 0.158045,-0.83538 0.383823,-1.55787 0.237067,-0.73378 0.485423,-1.43369 0.248355,-0.69991 0.474133,-1.4224 0.225779,-0.73378 0.372534,-1.55787 0.05645,-0.32738 0.06773,-0.59831 0.01129,-0.27093 -0.07902,-0.48542 z m 3.172181,1.12889 q -0.564445,0 -1.12889,0.4064 -0.564445,0.4064 -1.23049,1.34338 -0.135467,0.42897 -0.282222,0.84666 -0.146756,0.41769 -0.282223,0.82409 0.372534,0.508 1.162757,0.508 0.745067,0 1.241779,-0.57573 0.496712,-0.58702 0.790223,-1.71591 l 0.05644,-0.19191 q 0.180623,-0.64347 0.191912,-1.10632 -0.146756,-0.33866 -0.51929,-0.33866 z"
         style="font-style:italic;font-weight:500;font-size:11.2889px;line-height:1.25;font-family:'Recursive Sans Casual Static';-inkscape-font-specification:'Recursive Sans Casual Static, Medium Italic';letter-spacing:-1.5875px;fill:#2aa198;stroke-width:0.264583"
         id="path63119-6" />
      <path
         d="m 74.98752,136.02352 q 0.778934,0 1.264357,0.33866 0.496712,0.33867 0.688623,0.84667 0.2032,0.49671 0.07902,0.98214 l -0.02258,0.0903 q -0.203201,0.80151 -0.959557,1.20791 -0.756356,0.4064 -1.930402,0.4064 -0.508,0 -0.891823,-0.0903 -0.372534,-0.0903 -0.564445,-0.22578 h -0.06773 q -0.07902,0.39511 -0.03387,0.76765 0.04515,0.36124 0.214489,0.64346 0.553156,0.23707 1.253068,0.23707 0.553156,0 0.959556,-0.0903 0.41769,-0.1016 0.767646,-0.28222 0.349956,-0.19192 0.7112,-0.46285 h 0.06773 q 0,0.14676 -0.02258,0.27093 -0.01129,0.12418 -0.03387,0.24836 -0.07902,0.31609 -0.2032,0.508 -0.124178,0.19191 -0.3048,0.34996 -0.316089,0.27093 -0.745068,0.4064 -0.428978,0.12418 -1.140179,0.12418 -1.016001,0 -1.670757,-0.42898 -0.654756,-0.44027 -0.891823,-1.18534 -0.237067,-0.74507 0,-1.65947 l 0.04516,-0.14675 q 0.248355,-0.97085 0.767645,-1.60303 0.519289,-0.63217 1.207912,-0.93697 0.688623,-0.31609 1.456268,-0.31609 z m 0.03387,1.07244 q -0.699912,0 -1.320801,0.47414 -0.62089,0.46284 -0.959557,1.44497 0.383823,0.12418 0.92569,0.12418 1.049868,0 1.546579,-0.28222 0.496712,-0.29351 0.62089,-0.76764 0.07902,-0.30481 0.05644,-0.50801 -0.02258,-0.2032 -0.112889,-0.34995 -0.169333,-0.0677 -0.349956,-0.1016 -0.169333,-0.0339 -0.4064,-0.0339 z"
         style="font-style:italic;font-weight:500;font-size:11.2889px;line-height:1.25;font-family:'Recursive Sans Casual Static';-inkscape-font-specification:'Recursive Sans Casual Static, Medium Italic';letter-spacing:-1.5875px;fill:#dc322f;stroke-width:0.264583"
         id="path63127-2" />
      <path
         d="m 80.920588,140.90032 c 0,0 0.101601,-0.16933 0.101601,-0.27093 0,-0.12418 -0.112889,-0.22578 -0.237067,-0.22578 -0.135467,0 -0.225778,0.15804 -0.225778,0.15804 0,0 -0.451556,0.72249 -1.106313,0.72249 -0.699911,0 -1.320801,-0.82409 -1.320801,-1.04986 0,0 1.794935,-0.75636 1.794935,-1.60303 0,-0.46284 -0.372533,-0.86924 -0.756356,-0.86924 -0.485423,0 -0.92569,0.23706 -0.970845,0.25964 0.04515,-0.0564 1.614312,-1.76107 1.614312,-2.70933 0,-0.4064 -0.508,-0.99343 -1.004712,-0.99343 -2.099735,0 -3.680181,5.36223 -3.680181,7.37165 0,0.47414 0.8128,0.59832 1.106312,0.59832 0.158044,0 0.2032,-0.0903 0.2032,-0.22578 0,-2.16747 1.016001,-3.52214 1.828802,-3.52214 0.158045,0 0.259645,0.0903 0.259645,0.31609 0,0.89182 -1.614313,1.30951 -1.614313,1.61431 0,0.69991 1.253068,1.81752 2.065869,1.81752 1.095023,0 1.94169,-1.38854 1.94169,-1.38854 z m -1.659468,-5.59929 c 0,0.68862 -1.388535,2.50613 -2.133602,3.17218 0.733778,-1.99814 1.512713,-3.39796 1.930402,-3.39796 0.135467,0 0.2032,0.0903 0.2032,0.22578 z"
         style="font-size:11.2889px;line-height:1.25;font-family:Milkshake;-inkscape-font-specification:'Milkshake, Normal';letter-spacing:-1.5875px;fill:#d33682;stroke-width:0.264583"
         id="path63129-3" />
      <path
         id="path3203-3"
         style="color:#000000;font-size:10.5833px;line-height:1.25;letter-spacing:-1.5875px;fill:#b58900;stroke-width:0.311842;stroke-linecap:round;stroke-linejoin:round;-inkscape-stroke:none"
         class="UnoptimicedTransforms"
         d="m 67.156562,137.40305 -0.06586,0.41995 -1.69e-4,0.004 -0.222185,1.42425 c -0.01196,0.0623 -0.04838,0.12482 -0.08097,0.15333 -0.0326,0.0285 -0.944776,0.65485 -1.025436,0.7252 -0.08066,0.0703 -0.205518,0.22489 -0.234064,0.40775 l -0.07917,0.51175 -0.169797,-0.0263 c -0.04324,-0.008 -0.08452,0.0216 -0.09113,0.065 l -0.113704,0.74186 c -0.0065,0.0425 0.02261,0.0823 0.06502,0.0889 l 0.73899,0.11589 c 0.04244,0.007 0.08212,-0.0225 0.08877,-0.065 l 0.116062,-0.74135 c 0.0065,-0.0425 -0.02261,-0.0822 -0.06502,-0.0888 l -0.169966,-0.0263 0.0817,-0.52101 c 0.01,-0.0635 0.04432,-0.13173 0.0977,-0.16845 l 0.740253,-0.51189 c -0.06146,0.52034 -0.161458,1.0689 -0.07925,1.53325 0.0426,0.22104 0.134187,0.40909 0.297482,0.54443 0.152091,0.12609 0.360183,0.20392 0.635562,0.23179 l 0.0022,0.0165 0.02291,0.22893 c 0.0053,0.0609 0.07636,0.0918 0.12499,0.0549 l 0.697215,-0.50889 c 0.04822,-0.0354 0.0408,-0.10977 -0.01364,-0.13425 l -0.791715,-0.35257 c -0.05523,-0.0236 -0.11501,0.0216 -0.107639,0.0812 l 0.02139,0.21561 c -0.207298,-0.0232 -0.326069,-0.11182 -0.405628,-0.25301 -0.09031,-0.16023 -0.121176,-0.39956 -0.110671,-0.68812 0.01911,-0.52214 0.167945,-1.19221 0.249306,-1.81993 l 0.544767,0.70698 c 0.03142,0.0567 0.04842,0.12663 0.04009,0.18951 l 0.0025,-0.003 c -0.05331,0.34154 -0.08574,0.54294 -0.09736,0.61754 -0.140831,0.0583 -0.278028,0.14812 -0.30321,0.30944 -0.03843,0.24609 0.132693,0.48026 0.378844,0.51866 0.246229,0.0385 0.478047,-0.13293 0.516467,-0.37902 0.02511,-0.16086 -0.07703,-0.28749 -0.192706,-0.38592 l 0.09484,-0.61063 c 0.03018,-0.19319 -0.04187,-0.39466 -0.09481,-0.47242 -0.05295,-0.0778 -0.738922,-0.96725 -0.746713,-0.97733 -0.03094,-0.0557 -0.03216,-0.0978 -0.0283,-0.13038 l 0.131391,-0.97869 c 0.28082,-0.0566 0.551042,-0.2105 0.60428,-0.55149 0.05324,-0.34099 -0.216297,-0.72987 -0.632033,-0.76448 -0.415736,-0.0346 -0.718431,0.22273 -0.768847,0.54561 -0.05042,0.32288 0.147445,0.56729 0.397264,0.707 z m 0.856316,-0.5061 c -0.04395,0.28156 -0.269104,0.42065 -0.524253,0.4317 -0.07494,0.003 -0.08225,0.0726 -0.08712,0.10973 l -0.147057,1.03496 c -0.01213,0.0854 0.03549,0.13255 0.06939,0.18941 0.03443,0.0577 0.690672,0.89206 0.736508,0.95871 0.04584,0.0666 0.101179,0.23748 0.07994,0.37349 l -0.09501,0.61299 c -0.0054,0.0329 0.01064,0.0654 0.03992,0.0812 0.108028,0.0581 0.172851,0.17617 0.152785,0.30472 -0.02542,0.16278 -0.175832,0.27427 -0.338753,0.2488 -0.162832,-0.0254 -0.274211,-0.176 -0.248801,-0.33875 0.02007,-0.12852 0.119097,-0.22407 0.239704,-0.24627 0.03236,-0.005 0.05762,-0.0308 0.06334,-0.0632 0.01161,-0.0748 0.04423,-0.27824 0.09753,-0.61973 3e-5,-8.9e-4 -3.2e-5,-9.2e-4 0,-0.003 0.01394,-0.10511 -0.01289,-0.20749 -0.04039,-0.25396 -0.0021,-0.003 -0.690514,-0.90252 -0.690514,-0.90252 l -1.69e-4,-3.4e-4 c -3.98e-4,-5.8e-4 -9.34e-4,-0.001 -0.0013,-0.002 -0.01268,-0.0175 -0.03241,-0.0298 -0.05559,-0.032 -0.04152,-0.004 -0.07864,0.0259 -0.08423,0.0672 -0.07018,0.66623 -0.252578,1.42414 -0.274573,2.02814 -0.01109,0.30198 0.0176,0.56796 0.132233,0.77133 0.10578,0.18767 0.292284,0.31012 0.558075,0.33337 l 0.07917,0.004 c 0.04376,-0.007 0.06725,-0.0391 0.06518,-0.0653 l -0.02303,-0.22512 0.552974,0.27094 -0.482104,0.35122 -0.02063,-0.19085 c -0.0025,-0.0229 -0.03218,-0.0525 -0.06999,-0.0555 -0.03009,-0.002 -0.06134,-0.005 -0.09232,-0.008 -0.235928,-0.0282 -0.402346,-0.0959 -0.518826,-0.19254 -0.131087,-0.10868 -0.206416,-0.25663 -0.244421,-0.4538 -0.07601,-0.39438 0.01047,-0.96982 0.106292,-1.65536 0.0053,-0.0337 -0.01193,-0.0655 -0.04203,-0.0796 -0.03009,-0.0141 -0.05651,-0.0131 -0.0799,0.003 l -0.903364,0.6207 c -0.07975,0.0548 -0.128973,0.15495 -0.14554,0.25958 l -0.09498,0.59982 c -0.0067,0.0425 0.02262,0.0822 0.06502,0.0888 l 0.172156,0.0265 -0.09214,0.58755 -0.587553,-0.0923 0.09214,-0.58519 0.172156,0.0263 c 0.04244,0.007 0.08212,-0.0224 0.08877,-0.0649 l 0.09214,-0.58991 c 0.02481,-0.15882 0.136145,-0.29418 0.211871,-0.34738 l 1.010459,-0.70985 c 0.03937,-0.036 0.09672,-0.1267 0.115734,-0.23053 2.6e-5,-8.9e-4 -3.6e-5,-9.2e-4 0,-0.003 l 0.222186,-1.42425 v -0.004 l 0.06586,-0.42011 c 0.0051,-0.0358 0.01551,-0.10673 -0.03467,-0.12537 -0.239761,-0.0889 -0.4297,-0.28804 -0.387943,-0.55556 0.04176,-0.26752 0.304213,-0.50493 0.629284,-0.47746 0.325071,0.0275 0.540337,0.35193 0.496384,0.63349 z"
         sodipodi:nodetypes="cccccccccccccccccsscccccccccccccccccccccscccccczzzczscssccccscccccccccccsccccscccscccccccssscccccccsscccccsszzz" />
    </g>
  </g>
</svg>
